<?xml version="1.0" encoding="UTF-8"?>
<svg xmlns="http://www.w3.org/2000/svg" xmlns:xlink="http://www.w3.org/1999/xlink" width="265px" height="265px" viewBox="0 0 265 265" version="1.1">
<g id="surface1">
<path style=" stroke:none;fill-rule:nonzero;fill:rgb(0%,0%,0%);fill-opacity:1;" d="M 100.488281 261.589844 L 100.488281 173.476562 L 73.171875 173.476562 L 73.171875 132.984375 L 100.488281 132.984375 L 100.488281 115.539062 C 100.488281 70.433594 120.894531 49.53125 165.171875 49.53125 C 169.601562 49.53125 175.71875 49.996094 181.382812 50.671875 C 185.625 51.105469 189.832031 51.824219 193.980469 52.824219 L 193.980469 89.535156 C 191.582031 89.3125 189.175781 89.179688 186.769531 89.140625 C 184.074219 89.070312 181.375 89.035156 178.675781 89.039062 C 170.871094 89.039062 164.773438 90.101562 160.179688 92.453125 C 157.09375 94 154.496094 96.378906 152.683594 99.320312 C 149.835938 103.957031 148.554688 110.304688 148.554688 118.664062 L 148.554688 132.984375 L 191.828125 132.984375 L 187.566406 156.207031 L 184.394531 173.476562 L 148.554688 173.476562 L 148.554688 264.515625 C 214.164062 256.585938 265 200.726562 265 132.984375 C 265 59.8125 205.671875 0.484375 132.5 0.484375 C 59.328125 0.484375 0 59.8125 0 132.984375 C 0 195.128906 42.777344 247.265625 100.488281 261.589844 Z M 100.488281 261.589844 "/>
</g>
</svg>
