<?xml version="1.0" encoding="UTF-8"?>
<svg xmlns="http://www.w3.org/2000/svg" xmlns:xlink="http://www.w3.org/1999/xlink" width="265px" height="265px" viewBox="0 0 265 265" version="1.1">
<g id="surface1">
<path style=" stroke:none;fill-rule:nonzero;fill:rgb(0%,0%,0%);fill-opacity:1;" d="M 225.769531 225.824219 L 186.527344 225.824219 L 186.527344 164.332031 C 186.527344 149.667969 186.230469 130.800781 166.078125 130.800781 C 145.617188 130.800781 142.492188 146.753906 142.492188 163.25 L 142.492188 225.824219 L 103.25 225.824219 L 103.25 99.375 L 140.945312 99.375 L 140.945312 116.609375 L 141.453125 116.609375 C 146.722656 106.671875 159.53125 96.183594 178.664062 96.183594 C 218.425781 96.183594 225.78125 122.351562 225.78125 156.417969 L 225.78125 225.824219 Z M 58.929688 82.074219 C 46.296875 82.074219 36.152344 71.847656 36.152344 59.273438 C 36.152344 46.707031 46.308594 36.492188 58.929688 36.492188 C 71.515625 36.492188 81.71875 46.707031 81.71875 59.273438 C 81.71875 71.847656 71.503906 82.074219 58.929688 82.074219 Z M 78.605469 225.824219 L 39.253906 225.824219 L 39.253906 99.375 L 78.605469 99.375 Z M 245.402344 0 L 19.554688 0 C 8.746094 0 0 8.546875 0 19.089844 L 0 245.910156 C 0 256.464844 8.746094 265 19.554688 265 L 245.367188 265 C 256.167969 265 265 256.464844 265 245.910156 L 265 19.089844 C 265 8.546875 256.167969 0 245.367188 0 Z M 245.402344 0 "/>
</g>
</svg>
